<svg version="1.1" id="Layer_1" xmlns="http://www.w3.org/2000/svg" xmlns:xlink="http://www.w3.org/1999/xlink" x="0px" y="0px"
	 width="100%" viewBox="0 0 638 638" enable-background="new 0 0 638 638" xml:space="preserve">
<path fill="#242021" opacity="1.000000" stroke="none" 
	d="
M333.000000,1.000001 
	C335.041656,1.000000 337.083344,1.000000 339.756897,1.379831 
	C373.457062,3.909189 405.738434,10.209281 436.296265,23.047571 
	C547.447998,69.745872 614.371765,152.342743 636.098633,271.188965 
	C637.062256,276.459930 638.032776,281.729675 639.000000,287.000000 
	C639.000000,309.687561 639.000000,332.375122 638.624390,355.697144 
	C637.395691,362.585999 636.756531,368.878357 635.653870,375.088440 
	C629.447327,410.041901 618.472351,443.408661 600.992920,474.373169 
	C553.509460,558.489197 482.645203,611.650757 388.583435,633.750244 
	C379.796234,635.814819 370.864563,637.264648 362.000000,639.000000 
	C333.645782,639.000000 305.291534,639.000000 276.304138,638.641479 
	C264.446564,636.025757 253.085876,634.294434 242.019806,631.426453 
	C167.806915,612.192139 107.666397,571.818054 62.082554,510.163544 
	C31.003046,468.126953 11.576344,421.123474 3.896702,369.333923 
	C3.085934,363.866302 1.972834,358.443573 0.999999,353.000000 
	C1.000000,331.979095 1.000000,310.958221 1.374174,289.300781 
	C4.574298,272.803009 6.433164,256.695465 10.399277,241.124680 
	C24.942869,184.027176 53.386539,134.599716 95.470802,93.384155 
	C148.795074,41.160599 212.728958,10.913464 287.061005,2.904051 
	C290.733063,2.508379 294.354828,1.645385 298.000000,0.999999 
	C301.030609,1.000000 304.061188,1.000000 307.832062,1.308696 
	C313.683777,1.751968 318.797119,2.032547 323.905945,1.966030 
	C326.940979,1.926514 329.968903,1.340375 333.000000,1.000001 
M570.635376,265.682648 
	C560.917908,269.128387 555.673645,275.639038 554.703247,286.255615 
	C553.969421,294.284668 555.620117,297.093231 563.830505,296.881897 
	C569.126221,296.745575 574.415588,296.350494 579.706482,296.048431 
	C580.984558,295.975433 582.257446,295.811554 583.477539,295.694763 
	C586.332092,281.528992 589.150635,267.712433 591.886963,253.879608 
	C592.993225,248.287003 590.715942,244.631638 585.510010,243.286087 
	C571.806702,239.744247 563.257690,245.212921 560.825256,259.064819 
	C560.568787,260.524780 560.244934,261.972870 559.846436,263.952698 
	C561.932007,263.952698 563.722534,263.931488 565.512390,263.958618 
	C567.338867,263.986328 569.164673,264.061523 571.014038,264.632111 
	C571.030151,264.803558 571.046265,264.975006 570.635376,265.682648 
M121.948517,350.388763 
	C119.453079,364.957092 117.001862,379.533142 114.445724,394.090820 
	C112.901543,402.885254 115.674744,407.762451 124.654137,408.852356 
	C131.005737,409.623260 137.586197,408.508514 143.812103,408.246185 
	C142.358765,412.396393 140.471695,413.910736 135.414551,413.991211 
	C128.805374,414.096405 122.193260,414.016937 115.422188,414.016937 
	C114.733459,418.582855 114.127663,422.599030 113.496582,426.782776 
	C125.601822,426.782776 137.228714,427.094818 148.830231,426.686188 
	C158.492813,426.345856 165.024796,421.354797 167.355255,411.622833 
	C167.972595,409.044800 168.568710,406.455048 169.012817,403.843170 
	C172.242554,384.848938 175.446014,365.850159 178.625793,346.847473 
	C180.150024,337.738434 181.604721,328.617706 183.175095,318.986053 
	C176.434814,318.986053 169.334610,317.037872 164.418594,319.482330 
	C158.360519,322.494659 154.241333,319.691132 149.267685,318.833374 
	C135.576706,316.472229 126.000771,323.171722 124.174324,336.241638 
	C123.553711,340.682617 122.772453,345.101166 121.948517,350.388763 
M82.956459,231.479004 
	C78.671890,254.954010 74.387321,278.429016 69.986198,302.542633 
	C64.036682,299.985199 63.222355,303.081329 62.441525,307.609680 
	C58.376129,331.186462 53.960442,354.702850 49.672314,378.241272 
	C48.284943,385.856812 46.914623,393.475494 45.484406,401.380707 
	C55.643524,403.303772 65.046951,405.083801 75.073730,406.981812 
	C81.232750,373.379456 87.342873,340.043915 93.442421,306.766022 
	C90.802887,306.093262 89.102776,305.659943 87.644928,305.288391 
	C87.430344,304.735901 87.294991,304.567017 87.320358,304.427338 
	C92.959663,273.373322 98.603287,242.320084 104.296234,211.275894 
	C104.456276,210.403122 105.052025,209.555618 105.610130,208.822296 
	C106.652771,207.452347 107.817116,206.175018 109.635231,204.026840 
	C100.597420,202.355408 93.153046,200.978668 85.463509,199.556595 
	C84.913788,201.402405 84.508965,202.761703 84.090828,204.165710 
	C85.494156,204.807922 86.611313,205.319168 87.785492,205.856506 
	C86.178070,214.321014 84.629631,222.474930 82.956459,231.479004 
M469.313354,320.597870 
	C463.483276,322.901093 460.656738,327.217346 459.673065,333.408020 
	C456.466705,353.587372 452.953735,373.718048 449.550690,393.866089 
	C448.463318,400.303864 450.518097,404.366852 456.567963,407.059021 
	C462.506195,409.701569 468.683289,410.339539 475.085724,408.868530 
	C478.978394,407.974152 482.216156,405.803986 487.110382,407.842133 
	C491.633698,409.725922 497.558929,408.243347 503.207520,408.243347 
	C509.376373,371.528137 515.497803,335.095215 521.668396,298.369507 
	C513.359192,298.369507 505.766541,298.369507 497.876923,298.369507 
	C496.507782,306.065491 495.162354,313.628326 493.801270,321.279114 
	C485.668304,318.026093 477.899292,317.487671 469.313354,320.597870 
M112.063194,189.848862 
	C112.701492,186.734467 114.625153,188.148758 116.260757,188.679993 
	C122.885445,190.831680 129.366547,193.688721 136.148712,195.044296 
	C158.966629,199.605026 181.887283,203.653427 204.776627,207.854263 
	C211.338867,209.058640 217.928162,210.115646 224.922134,211.311539 
	C221.364365,201.317963 216.091522,193.879242 208.068573,188.049088 
	C180.782959,168.221085 149.894028,157.725601 117.075768,152.019394 
	C111.921387,151.123184 106.710762,150.550507 101.695000,149.851761 
	C100.972610,152.417023 100.498772,154.099670 100.045441,155.709457 
	C96.698547,155.350021 93.770790,155.035614 90.507782,154.685196 
	C88.605591,164.959915 86.781372,174.813492 84.976646,184.561813 
	C88.410751,185.377045 91.253105,186.051788 94.361992,186.789810 
	C93.815315,190.572189 93.347206,193.811005 92.825661,197.419556 
	C98.738464,198.488419 104.357582,199.504196 110.278214,200.574478 
	C110.911079,196.870407 111.438713,193.782288 112.063194,189.848862 
M179.888550,369.346588 
	C178.404907,378.199982 176.948685,387.058105 175.427887,395.905121 
	C174.431183,401.703308 176.320602,405.964966 181.836563,407.784912 
	C185.517548,408.999390 189.765442,409.849396 193.500916,409.250061 
	C200.304474,408.158447 206.963470,407.335541 213.860672,408.186615 
	C217.634033,408.652283 221.518433,408.133423 225.338165,408.335083 
	C228.335159,408.493347 229.635498,407.682526 230.158722,404.385498 
	C233.257156,384.860687 236.660858,365.384369 239.949051,345.889557 
	C241.430603,337.105835 242.882477,328.317108 244.381577,319.328217 
	C236.063492,319.328217 228.329269,319.328217 220.502609,319.328217 
	C217.918304,334.682159 215.398621,349.743805 212.843323,364.799438 
	C211.286560,373.971893 209.867310,383.177032 207.886826,392.258545 
	C207.578751,393.671295 204.595657,394.500702 202.849548,395.599823 
	C201.973114,393.952301 200.147888,392.163147 200.369324,390.679474 
	C202.257202,378.030518 204.536850,365.440430 206.658920,352.825928 
	C208.526566,341.723694 210.342484,330.612762 212.197327,319.408569 
	C203.945969,319.408569 196.079285,319.408569 188.345917,319.408569 
	C185.526962,336.047791 182.778732,352.269409 179.888550,369.346588 
M408.103821,409.352386 
	C414.714020,408.912140 421.418579,409.015259 427.909515,407.888214 
	C435.315948,406.602173 441.510071,402.500488 443.702332,394.963989 
	C445.673676,388.186768 446.370972,381.038910 447.706909,373.629333 
	C439.533264,373.629333 431.948303,373.629333 423.948792,373.629333 
	C423.624634,375.079315 423.203735,376.655762 422.927277,378.257172 
	C422.163727,382.679657 421.884613,387.248291 420.530762,391.476349 
	C419.966980,393.236938 417.163971,394.280487 415.379242,395.650116 
	C414.534912,393.975739 412.818054,392.200806 412.997467,390.644440 
	C413.768646,383.955383 415.097046,377.330597 416.253784,370.497192 
	C427.114716,370.497192 437.403503,370.497192 448.061554,370.497192 
	C449.994507,359.500153 451.901520,348.727295 453.765411,337.946991 
	C453.991119,336.641479 454.049561,335.296936 454.074341,333.968414 
	C454.207886,326.800171 450.581207,321.498840 442.932556,320.325134 
	C435.135559,319.128662 427.022552,318.577362 419.198517,319.323242 
	C409.037994,320.291870 400.252991,324.886505 398.151672,336.051239 
	C394.678589,354.504669 391.761688,373.068817 388.944305,391.636963 
	C387.618073,400.377472 391.339935,405.550964 399.860687,407.959137 
	C402.244080,408.632690 404.770844,408.798889 408.103821,409.352386 
M301.063141,345.744293 
	C301.578583,342.963715 302.200256,340.197906 302.590271,337.399872 
	C303.979065,327.437408 300.687286,321.882660 290.712921,320.149963 
	C283.286713,318.859955 275.426178,318.392456 267.972870,319.304871 
	C254.728546,320.926178 248.723801,326.634186 246.540375,338.558197 
	C243.339218,356.040070 240.503601,373.593079 237.795120,391.159363 
	C236.366425,400.425476 240.107513,405.806946 249.216095,408.046387 
	C259.610474,410.601990 270.019104,410.346375 280.198792,406.891174 
	C285.772186,404.999451 290.586487,401.610809 292.191193,395.785065 
	C294.158051,388.644501 295.148865,381.235046 296.682709,373.316986 
	C289.399231,373.316986 282.941681,373.449463 276.493896,373.256805 
	C273.604523,373.170471 272.343384,374.041046 271.954346,377.010925 
	C271.286652,382.108337 270.526855,387.249786 269.069977,392.154175 
	C268.622314,393.661133 265.852081,394.658752 263.952332,395.383911 
	C263.618408,395.511383 261.474396,393.019684 261.615753,391.924652 
	C262.523895,384.889282 263.835846,377.906006 265.064178,370.614655 
	C270.606781,370.614655 275.739075,370.614624 280.871368,370.614624 
	C286.151489,370.614624 291.431580,370.614655 296.961700,370.614655 
	C298.366364,362.300323 299.691315,354.457703 301.063141,345.744293 
M565.486816,320.794952 
	C557.601685,320.211151 549.599854,318.492798 541.856689,319.289337 
	C527.534607,320.762756 521.288147,327.475159 519.213562,340.896667 
	C518.604614,344.836365 518.003662,348.777496 517.357849,352.711212 
	C515.205933,365.819366 512.667480,378.877838 510.998993,392.046783 
	C509.859436,401.040741 514.014648,405.998688 522.905518,408.120087 
	C531.964905,410.281677 541.070496,410.194427 550.098450,408.059509 
	C558.635376,406.040741 565.123962,401.359955 566.757751,392.259399 
	C570.015930,374.110535 573.095154,355.923615 575.840515,337.691040 
	C577.278687,328.139435 575.164856,325.119629 565.486816,320.794952 
M387.160309,356.077698 
	C388.321381,355.081268 390.264648,354.249023 390.513947,353.061249 
	C391.911835,346.401062 393.056335,339.676605 393.990112,332.932922 
	C395.118103,324.786621 391.382812,319.970032 383.060516,318.875854 
	C379.959015,318.468109 376.755768,318.728302 373.604004,318.834930 
	C369.504395,318.973663 365.873230,320.568390 361.206146,319.429016 
	C354.630554,317.823639 347.370239,319.022797 340.220551,319.022797 
	C335.218781,348.792084 330.275024,378.216034 325.273315,407.984863 
	C333.385742,407.984863 341.131866,407.984863 349.139465,407.984863 
	C351.438721,394.388916 353.724487,380.954132 355.979095,367.514130 
	C357.683014,357.356873 359.334625,347.190796 361.036041,337.033112 
	C361.571289,333.837616 363.683197,332.076782 366.649384,333.096283 
	C367.883240,333.520416 369.161621,336.283844 369.006256,337.842651 
	C368.414642,343.778595 367.246490,349.657043 366.212646,356.059021 
	C372.962860,356.059021 379.592072,356.059021 387.160309,356.077698 
M313.383759,408.274628 
	C315.470581,408.167999 317.557373,408.061371 319.619598,407.955994 
	C324.627136,378.107544 329.551025,348.757843 334.502625,319.242859 
	C326.099823,319.242859 318.513397,319.242859 310.608490,319.242859 
	C305.632324,348.893097 300.686462,378.362854 295.665771,408.278595 
	C301.808655,408.278595 307.109161,408.278595 313.383759,408.274628 
M110.292374,389.846375 
	C114.236435,366.349731 118.180504,342.853088 122.139191,319.269348 
	C113.804840,319.269348 106.030548,319.269348 98.236710,319.269348 
	C93.264549,348.934692 88.335014,378.345764 83.359177,408.033081 
	C91.768158,408.033081 99.362801,408.033081 107.201942,408.033081 
	C108.198944,402.131073 109.164413,396.415680 110.292374,389.846375 
M387.340698,281.870117 
	C386.949524,284.166626 386.473267,286.452484 386.183105,288.761688 
	C385.309204,295.716888 385.684723,296.117218 392.615601,296.120392 
	C395.253113,296.121613 397.890625,296.120605 399.472900,296.120605 
	C400.777222,288.030762 401.542938,280.439453 403.331757,273.097382 
	C404.730865,267.354950 403.878143,263.177338 397.656342,260.166656 
	C406.573914,257.508209 408.201996,250.847321 409.158752,243.611710 
	C410.243286,235.409958 407.624146,231.416870 399.499634,230.837738 
	C392.760162,230.357330 385.959137,230.739426 378.918610,230.739426 
	C374.581055,252.524628 370.305695,273.997253 365.981873,295.713470 
	C370.920227,295.713470 375.628052,295.713470 380.367493,295.713470 
	C382.274536,286.276764 384.059418,277.158997 386.024841,268.080322 
	C386.270416,266.946014 387.470795,266.018433 388.228790,264.995056 
	C388.848511,266.277557 390.125153,267.647003 389.969055,268.826874 
	C389.426025,272.930817 388.386383,276.969086 387.340698,281.870117 
M522.794556,262.312103 
	C523.966492,256.042664 525.138428,249.773239 526.430908,242.859039 
	C519.780579,242.859039 513.928589,242.859039 508.076569,242.859039 
	C507.867493,242.448990 507.658386,242.038940 507.449280,241.628906 
	C508.760010,240.445236 510.100311,238.221252 511.376373,238.257507 
	C516.974182,238.416565 517.373291,235.107224 517.277893,230.625854 
	C514.076904,230.625854 511.107056,230.523987 508.146332,230.644989 
	C499.329132,231.005310 498.269470,231.881027 495.325989,240.230087 
	C494.950348,241.295639 493.888062,242.973236 493.212921,242.940552 
	C488.813690,242.727615 489.612457,246.313095 489.387482,248.489014 
	C489.275146,249.575836 491.369720,250.890823 492.841095,252.517059 
	C490.096710,266.331146 487.192169,280.951508 484.235443,295.834473 
	C488.754700,295.834473 492.849030,295.834473 497.209412,295.834473 
	C500.243225,280.756897 503.244720,265.839996 506.220154,251.052612 
	C508.310486,251.052612 509.942261,251.052612 511.898590,251.052612 
	C508.930908,266.065155 506.012939,280.826294 503.044220,295.844177 
	C507.374390,295.844177 511.490356,295.844177 515.990540,295.844177 
	C518.202271,284.913422 520.404846,274.027740 522.794556,262.312103 
M100.957520,250.345016 
	C99.091179,260.426514 97.224831,270.507965 95.295372,280.930389 
	C97.962585,281.391022 100.049202,281.856903 102.161476,282.096466 
	C108.568817,282.823029 113.960236,275.809204 110.200630,270.620483 
	C106.859116,266.008789 107.992882,262.248535 108.896851,257.821838 
	C110.388268,250.518478 110.314079,250.273010 117.813911,250.494705 
	C134.797318,250.996796 150.906570,247.908066 165.796814,239.476624 
	C167.467346,238.530701 168.876846,237.123795 170.975876,235.487488 
	C148.678650,231.376190 127.498619,227.470886 105.944237,223.496567 
	C104.225906,232.564224 102.622269,241.026611 100.957520,250.345016 
M440.339966,261.904694 
	C443.662445,244.986923 439.624359,240.467331 423.419830,243.122314 
	C417.345886,244.117477 412.892456,247.244598 411.582092,253.598206 
	C409.304779,264.640411 407.101227,275.699615 405.045593,286.784851 
	C404.242462,291.115906 406.056915,294.619843 410.387177,295.651886 
	C427.731079,299.785614 437.359253,293.764832 436.788818,275.557922 
	C432.706665,275.557922 428.635834,275.557922 424.562378,275.557922 
	C423.869690,279.151245 423.440247,282.455902 422.512512,285.614136 
	C422.182556,286.737427 420.642517,287.505219 419.654877,288.435303 
	C419.194519,287.239441 418.259613,285.997894 418.369446,284.856934 
	C418.621796,282.235352 419.591980,279.685699 419.880524,277.063904 
	C420.187622,274.273346 421.539398,273.519379 424.166382,273.622955 
	C428.630463,273.798981 433.106537,273.671356 437.900726,273.671356 
	C438.682953,269.854889 439.411865,266.298462 440.339966,261.904694 
M539.151062,261.803192 
	C541.347961,251.510239 541.347961,251.510239 545.378784,251.656418 
	C544.568359,256.519196 543.767090,261.327118 542.932007,266.337708 
	C547.415161,266.337708 551.503113,266.337708 555.717041,266.337708 
	C556.649719,261.685883 557.616150,257.311249 558.386719,252.902405 
	C559.228088,248.087875 557.182129,244.116684 552.490051,243.596344 
	C547.141418,243.003174 541.521301,243.138031 536.245483,244.143707 
	C531.892883,244.973389 528.884766,248.450821 527.931885,253.136765 
	C525.682495,264.197998 523.249573,275.228088 521.348755,286.349030 
	C520.962158,288.610840 521.869812,291.881622 523.412537,293.544617 
	C529.096680,299.672028 546.661560,297.604065 550.147156,290.143738 
	C552.510559,285.085297 553.113342,279.204254 554.575439,273.405975 
	C549.487671,273.405975 545.410034,273.405975 541.337463,273.405975 
	C540.515930,277.603241 539.954529,281.569061 538.866577,285.384674 
	C538.525146,286.582336 536.767944,287.376343 535.658752,288.355103 
	C535.307129,287.104248 534.473755,285.765961 534.682251,284.616730 
	C536.014954,277.270172 537.576660,269.965210 539.151062,261.803192 
M465.955170,239.774841 
	C466.377930,237.409241 466.800690,235.043655 467.244415,232.560760 
	C462.570862,232.560760 458.507751,232.560760 454.512512,232.560760 
	C453.668396,236.265091 452.907471,239.604385 452.175903,242.814713 
	C449.951233,243.034882 448.178131,243.210373 446.337463,243.392532 
	C445.944275,245.910477 445.592285,248.164719 445.228821,250.492188 
	C447.145264,250.783264 448.855682,251.043060 450.623535,251.311569 
	C450.234802,253.282990 449.900482,254.910172 449.594299,256.542633 
	C447.603973,267.154572 445.435486,277.737793 443.710693,288.392822 
	C442.836487,293.793060 444.320007,295.448792 449.659058,295.835785 
	C453.758575,296.132965 457.896912,295.894958 462.204437,295.894958 
	C462.796570,292.948029 463.339264,290.247223 463.882202,287.545074 
	C461.485046,286.172150 456.530396,288.312469 457.396271,283.286224 
	C459.249817,272.525940 461.587830,261.849091 463.743225,251.059052 
	C466.224976,250.911926 468.345367,250.786224 470.677338,250.647964 
	C471.210022,248.141296 471.704224,245.815704 472.198425,243.490112 
	C470.597809,240.658661 465.681030,246.203949 465.955170,239.774841 
M481.674744,275.170502 
	C483.750916,264.637482 485.827057,254.104477 487.960754,243.279419 
	C483.483887,243.279419 479.374329,243.279419 474.935822,243.279419 
	C471.473175,260.755829 468.018463,278.192444 464.543793,295.729675 
	C469.304810,295.729675 473.377747,295.729675 477.564941,295.729675 
	C478.871826,288.948547 480.122620,282.458466 481.674744,275.170502 
M58.007797,244.909988 
	C57.351364,249.867599 59.842041,253.408127 63.057796,256.774872 
	C63.978645,257.738953 64.682816,259.518768 64.518753,260.800690 
	C63.935154,265.360626 62.934307,269.867157 62.034618,274.699188 
	C64.371361,275.169739 66.367790,275.571747 68.503189,276.001740 
	C72.087418,256.585693 75.570076,237.719894 79.141365,218.373978 
	C76.820847,218.094513 74.808861,217.852203 72.622757,217.588943 
	C71.667686,222.369522 71.012207,226.631866 69.885956,230.765961 
	C69.481125,232.251984 68.204742,234.114563 66.874245,234.623093 
	C62.275459,236.380844 59.537712,239.555099 58.007797,244.909988 
M123.761948,298.192932 
	C116.534615,298.192932 109.307274,298.192932 101.846794,298.192932 
	C100.897141,303.657806 100.030266,308.646301 99.111404,313.933929 
	C107.191902,313.933929 114.913521,313.933929 123.525406,313.933929 
	C123.888710,308.684174 124.248482,303.485535 123.761948,298.192932 
M323.493103,314.157959 
	C327.429260,314.157959 331.365387,314.157959 335.433105,314.157959 
	C336.329956,308.636810 337.139648,303.652344 337.983551,298.457275 
	C329.773102,298.457275 322.058014,298.457275 314.113037,298.457275 
	C313.264893,303.713440 312.459717,308.703278 311.579498,314.158173 
	C315.594818,314.158173 319.047211,314.158173 323.493103,314.157959 
M486.759399,230.531128 
	C480.777588,230.108353 481.361572,235.468628 479.163605,238.493576 
	C486.657928,240.964615 488.901886,235.427078 492.669006,230.558517 
	C490.431274,230.558517 488.996613,230.558517 486.759399,230.531128 
z"/>
<path fill="#FDFDFD" opacity="1.000000" stroke="none" 
	d="
M297.531342,0.999999 
	C294.354828,1.645385 290.733063,2.508379 287.061005,2.904051 
	C212.728958,10.913464 148.795074,41.160599 95.470802,93.384155 
	C53.386539,134.599716 24.942869,184.027176 10.399277,241.124680 
	C6.433164,256.695465 4.574298,272.803009 1.374174,288.832092 
	C1.000000,193.071823 1.000000,97.143631 1.000000,1.000000 
	C99.687454,1.000000 198.375076,1.000000 297.531342,0.999999 
z"/>
<path fill="#FDFDFD" opacity="1.000000" stroke="none" 
	d="
M639.000000,286.531342 
	C638.032776,281.729675 637.062256,276.459930 636.098633,271.188965 
	C614.371765,152.342743 547.447998,69.745872 436.296265,23.047571 
	C405.738434,10.209281 373.457062,3.909189 340.194397,1.379831 
	C439.592072,1.000000 539.184143,1.000000 639.000000,1.000000 
	C639.000000,96.020775 639.000000,191.041733 639.000000,286.531342 
z"/>
<path fill="#FDFDFD" opacity="1.000000" stroke="none" 
	d="
M0.999999,353.468658 
	C1.972834,358.443573 3.085934,363.866302 3.896702,369.333923 
	C11.576344,421.123474 31.003046,468.126953 62.082554,510.163544 
	C107.666397,571.818054 167.806915,612.192139 242.019806,631.426453 
	C253.085876,634.294434 264.446564,636.025757 275.835449,638.641479 
	C184.404831,639.000000 92.809654,639.000000 1.000000,639.000000 
	C1.000000,543.979187 1.000000,448.958252 0.999999,353.468658 
z"/>
<path fill="#FDFDFD" opacity="1.000000" stroke="none" 
	d="
M362.468658,639.000000 
	C370.864563,637.264648 379.796234,635.814819 388.583435,633.750244 
	C482.645203,611.650757 553.509460,558.489197 600.992920,474.373169 
	C618.472351,443.408661 629.447327,410.041901 635.653870,375.088440 
	C636.756531,368.878357 637.395691,362.585999 638.624390,356.165833 
	C639.000000,450.259613 639.000000,544.519226 639.000000,639.000000 
	C546.979248,639.000000 454.958282,639.000000 362.468658,639.000000 
z"/>
<path fill="#313131" opacity="1.000000" stroke="none" 
	d="
M332.531372,1.000001 
	C329.968903,1.340375 326.940979,1.926514 323.905945,1.966030 
	C318.797119,2.032547 313.683777,1.751968 308.286163,1.308696 
	C316.020905,1.000000 324.041809,1.000000 332.531372,1.000001 
z"/>
<path fill="#FBFAFA" opacity="1.000000" stroke="none" 
	d="
M122.006561,349.959351 
	C122.772453,345.101166 123.553711,340.682617 124.174324,336.241638 
	C126.000771,323.171722 135.576706,316.472229 149.267685,318.833374 
	C154.241333,319.691132 158.360519,322.494659 164.418594,319.482330 
	C169.334610,317.037872 176.434814,318.986053 183.175095,318.986053 
	C181.604721,328.617706 180.150024,337.738434 178.625793,346.847473 
	C175.446014,365.850159 172.242554,384.848938 169.012817,403.843170 
	C168.568710,406.455048 167.972595,409.044800 167.355255,411.622833 
	C165.024796,421.354797 158.492813,426.345856 148.830231,426.686188 
	C137.228714,427.094818 125.601822,426.782776 113.496582,426.782776 
	C114.127663,422.599030 114.733459,418.582855 115.422188,414.016937 
	C122.193260,414.016937 128.805374,414.096405 135.414551,413.991211 
	C140.471695,413.910736 142.358765,412.396393 143.812103,408.246185 
	C137.586197,408.508514 131.005737,409.623260 124.654137,408.852356 
	C115.674744,407.762451 112.901543,402.885254 114.445724,394.090820 
	C117.001862,379.533142 119.453079,364.957092 122.006561,349.959351 
M142.064285,372.493713 
	C141.018417,379.056549 139.818558,385.601624 139.056686,392.197266 
	C138.904495,393.514832 140.357986,396.160339 141.186310,396.208435 
	C142.860382,396.305634 144.786514,395.284119 146.260239,394.234619 
	C146.985138,393.718414 147.017807,392.125702 147.217270,390.994324 
	C148.053726,386.250061 148.850845,381.498688 149.633087,376.745056 
	C151.818283,363.465790 154.064880,350.195465 156.048904,336.886078 
	C156.249466,335.540649 154.656540,332.646362 154.193436,332.707947 
	C152.304718,332.959106 150.370163,333.854095 148.789001,334.983154 
	C148.073456,335.494110 148.065765,337.093597 147.871597,338.222382 
	C145.956375,349.355896 144.069473,360.494263 142.064285,372.493713 
z"/>
<path fill="#FAFAFA" opacity="1.000000" stroke="none" 
	d="
M83.018829,231.053925 
	C84.629631,222.474930 86.178070,214.321014 87.785492,205.856506 
	C86.611313,205.319168 85.494156,204.807922 84.090828,204.165710 
	C84.508965,202.761703 84.913788,201.402405 85.463509,199.556595 
	C93.153046,200.978668 100.597420,202.355408 109.635231,204.026840 
	C107.817116,206.175018 106.652771,207.452347 105.610130,208.822296 
	C105.052025,209.555618 104.456276,210.403122 104.296234,211.275894 
	C98.603287,242.320084 92.959663,273.373322 87.320358,304.427338 
	C87.294991,304.567017 87.430344,304.735901 87.644928,305.288391 
	C89.102776,305.659943 90.802887,306.093262 93.442421,306.766022 
	C87.342873,340.043915 81.232750,373.379456 75.073730,406.981812 
	C65.046951,405.083801 55.643524,403.303772 45.484406,401.380707 
	C46.914623,393.475494 48.284943,385.856812 49.672314,378.241272 
	C53.960442,354.702850 58.376129,331.186462 62.441525,307.609680 
	C63.222355,303.081329 64.036682,299.985199 69.986198,302.542633 
	C74.387321,278.429016 78.671890,254.954010 83.018829,231.053925 
z"/>
<path fill="#FAFAFA" opacity="1.000000" stroke="none" 
	d="
M469.662354,320.427856 
	C477.899292,317.487671 485.668304,318.026093 493.801270,321.279114 
	C495.162354,313.628326 496.507782,306.065491 497.876923,298.369507 
	C505.766541,298.369507 513.359192,298.369507 521.668396,298.369507 
	C515.497803,335.095215 509.376373,371.528137 503.207520,408.243347 
	C497.558929,408.243347 491.633698,409.725922 487.110382,407.842133 
	C482.216156,405.803986 478.978394,407.974152 475.085724,408.868530 
	C468.683289,410.339539 462.506195,409.701569 456.567963,407.059021 
	C450.518097,404.366852 448.463318,400.303864 449.550690,393.866089 
	C452.953735,373.718048 456.466705,353.587372 459.673065,333.408020 
	C460.656738,327.217346 463.483276,322.901093 469.662354,320.427856 
M478.894287,395.453094 
	C480.052612,393.619873 481.874268,391.915100 482.258331,389.931946 
	C484.280701,379.488464 485.970764,368.979858 487.714935,358.483643 
	C488.912994,351.273590 490.147644,344.063599 491.032410,336.812836 
	C491.198425,335.452454 489.613586,332.600800 489.135712,332.664917 
	C487.258850,332.916870 485.337433,333.833923 483.773315,334.972260 
	C483.057709,335.493103 483.062683,337.087982 482.861572,338.217285 
	C481.987701,343.123901 481.150574,348.037140 480.314240,352.950378 
	C478.251282,365.069305 476.140350,377.180481 474.176697,389.315521 
	C473.679993,392.385193 472.858673,396.036591 478.894287,395.453094 
z"/>
<path fill="#FBFBFB" opacity="1.000000" stroke="none" 
	d="
M112.014771,190.271515 
	C111.438713,193.782288 110.911079,196.870407 110.278214,200.574478 
	C104.357582,199.504196 98.738464,198.488419 92.825661,197.419556 
	C93.347206,193.811005 93.815315,190.572189 94.361992,186.789810 
	C91.253105,186.051788 88.410751,185.377045 84.976646,184.561813 
	C86.781372,174.813492 88.605591,164.959915 90.507782,154.685196 
	C93.770790,155.035614 96.698547,155.350021 100.045441,155.709457 
	C100.498772,154.099670 100.972610,152.417023 101.695000,149.851761 
	C106.710762,150.550507 111.921387,151.123184 117.075768,152.019394 
	C149.894028,157.725601 180.782959,168.221085 208.068573,188.049088 
	C216.091522,193.879242 221.364365,201.317963 224.922134,211.311539 
	C217.928162,210.115646 211.338867,209.058640 204.776627,207.854263 
	C181.887283,203.653427 158.966629,199.605026 136.148712,195.044296 
	C129.366547,193.688721 122.885445,190.831680 116.260757,188.679993 
	C114.625153,188.148758 112.701492,186.734467 112.014771,190.271515 
z"/>
<path fill="#FBFAFB" opacity="1.000000" stroke="none" 
	d="
M179.959534,368.918823 
	C182.778732,352.269409 185.526962,336.047791 188.345917,319.408569 
	C196.079285,319.408569 203.945969,319.408569 212.197327,319.408569 
	C210.342484,330.612762 208.526566,341.723694 206.658920,352.825928 
	C204.536850,365.440430 202.257202,378.030518 200.369324,390.679474 
	C200.147888,392.163147 201.973114,393.952301 202.849548,395.599823 
	C204.595657,394.500702 207.578751,393.671295 207.886826,392.258545 
	C209.867310,383.177032 211.286560,373.971893 212.843323,364.799438 
	C215.398621,349.743805 217.918304,334.682159 220.502609,319.328217 
	C228.329269,319.328217 236.063492,319.328217 244.381577,319.328217 
	C242.882477,328.317108 241.430603,337.105835 239.949051,345.889557 
	C236.660858,365.384369 233.257156,384.860687 230.158722,404.385498 
	C229.635498,407.682526 228.335159,408.493347 225.338165,408.335083 
	C221.518433,408.133423 217.634033,408.652283 213.860672,408.186615 
	C206.963470,407.335541 200.304474,408.158447 193.500916,409.250061 
	C189.765442,409.849396 185.517548,408.999390 181.836563,407.784912 
	C176.320602,405.964966 174.431183,401.703308 175.427887,395.905121 
	C176.948685,387.058105 178.404907,378.199982 179.959534,368.918823 
z"/>
<path fill="#FAF9F9" opacity="1.000000" stroke="none" 
	d="
M407.667847,409.275085 
	C404.770844,408.798889 402.244080,408.632690 399.860687,407.959137 
	C391.339935,405.550964 387.618073,400.377472 388.944305,391.636963 
	C391.761688,373.068817 394.678589,354.504669 398.151672,336.051239 
	C400.252991,324.886505 409.037994,320.291870 419.198517,319.323242 
	C427.022552,318.577362 435.135559,319.128662 442.932556,320.325134 
	C450.581207,321.498840 454.207886,326.800171 454.074341,333.968414 
	C454.049561,335.296936 453.991119,336.641479 453.765411,337.946991 
	C451.901520,348.727295 449.994507,359.500153 448.061554,370.497192 
	C437.403503,370.497192 427.114716,370.497192 416.253784,370.497192 
	C415.097046,377.330597 413.768646,383.955383 412.997467,390.644440 
	C412.818054,392.200806 414.534912,393.975739 415.379211,395.650085 
	C417.163971,394.280487 419.966980,393.236938 420.530762,391.476349 
	C421.884613,387.248291 422.163727,382.679657 422.927277,378.257172 
	C423.203735,376.655762 423.624634,375.079315 423.948792,373.629333 
	C431.948303,373.629333 439.533264,373.629333 447.706909,373.629333 
	C446.370972,381.038910 445.673676,388.186768 443.702332,394.963989 
	C441.510071,402.500488 435.315948,406.602173 427.909515,407.888214 
	C421.418579,409.015259 414.714020,408.912140 407.667847,409.275085 
M422.659454,334.407074 
	C421.229767,341.804443 419.800079,349.201843 418.340485,356.754028 
	C421.658600,356.754028 424.070740,356.754028 426.597168,356.754028 
	C427.659088,350.403748 428.814240,344.371857 429.592072,338.291718 
	C429.814972,336.549591 429.517731,333.865448 428.414703,333.080292 
	C427.353943,332.325134 424.941528,333.468781 422.659454,334.407074 
z"/>
<path fill="#FAF9F9" opacity="1.000000" stroke="none" 
	d="
M301.039734,346.179688 
	C299.691315,354.457703 298.366364,362.300323 296.961700,370.614655 
	C291.431580,370.614655 286.151489,370.614624 280.871368,370.614624 
	C275.739075,370.614624 270.606781,370.614655 265.064178,370.614655 
	C263.835846,377.906006 262.523895,384.889282 261.615753,391.924652 
	C261.474396,393.019684 263.618408,395.511383 263.952332,395.383911 
	C265.852081,394.658752 268.622314,393.661133 269.069977,392.154175 
	C270.526855,387.249786 271.286652,382.108337 271.954346,377.010925 
	C272.343384,374.041046 273.604523,373.170471 276.493896,373.256805 
	C282.941681,373.449463 289.399231,373.316986 296.682709,373.316986 
	C295.148865,381.235046 294.158051,388.644501 292.191193,395.785065 
	C290.586487,401.610809 285.772186,404.999451 280.198792,406.891174 
	C270.019104,410.346375 259.610474,410.601990 249.216095,408.046387 
	C240.107513,405.806946 236.366425,400.425476 237.795120,391.159363 
	C240.503601,373.593079 243.339218,356.040070 246.540375,338.558197 
	C248.723801,326.634186 254.728546,320.926178 267.972870,319.304871 
	C275.426178,318.392456 283.286713,318.859955 290.712921,320.149963 
	C300.687286,321.882660 303.979065,327.437408 302.590271,337.399872 
	C302.200256,340.197906 301.578583,342.963715 301.039734,346.179688 
M268.896942,348.158569 
	C268.412598,351.007416 267.928223,353.856232 267.436859,356.746460 
	C270.555267,356.746460 272.957855,356.746460 275.417419,356.746460 
	C276.524414,350.382355 277.572174,344.336853 278.629089,338.292938 
	C279.070801,335.766968 279.733276,332.950470 276.092255,332.445526 
	C272.938354,332.008148 271.187836,333.767059 270.747040,336.973785 
	C270.271576,340.432648 269.588409,343.862946 268.896942,348.158569 
z"/>
<path fill="#FBFAFB" opacity="1.000000" stroke="none" 
	d="
M565.857178,320.921722 
	C575.164856,325.119629 577.278687,328.139435 575.840515,337.691040 
	C573.095154,355.923615 570.015930,374.110535 566.757751,392.259399 
	C565.123962,401.359955 558.635376,406.040741 550.098450,408.059509 
	C541.070496,410.194427 531.964905,410.281677 522.905518,408.120087 
	C514.014648,405.998688 509.859436,401.040741 510.998993,392.046783 
	C512.667480,378.877838 515.205933,365.819366 517.357849,352.711212 
	C518.003662,348.777496 518.604614,344.836365 519.213562,340.896667 
	C521.288147,327.475159 527.534607,320.762756 541.856689,319.289337 
	C549.599854,318.492798 557.601685,320.211151 565.857178,320.921722 
M540.190552,358.659790 
	C538.446716,369.133148 536.695984,379.605347 534.964294,390.080688 
	C534.571777,392.455353 534.197632,395.048126 537.439941,395.592529 
	C540.563660,396.117065 542.494934,394.539764 542.950928,391.331299 
	C542.997681,391.002258 543.024536,390.670013 543.080688,390.342712 
	C546.054688,373.016785 549.060730,355.696289 551.971313,338.359711 
	C552.366699,336.005066 553.219360,332.961212 549.533203,332.422699 
	C546.163208,331.930328 544.447327,333.816528 543.926636,337.221497 
	C542.874146,344.104431 541.569580,350.948822 540.190552,358.659790 
z"/>
<path fill="#FBFAFB" opacity="1.000000" stroke="none" 
	d="
M386.690796,356.068359 
	C379.592072,356.059021 372.962860,356.059021 366.212646,356.059021 
	C367.246490,349.657043 368.414642,343.778595 369.006256,337.842651 
	C369.161621,336.283844 367.883240,333.520416 366.649384,333.096283 
	C363.683197,332.076782 361.571289,333.837616 361.036041,337.033112 
	C359.334625,347.190796 357.683014,357.356873 355.979095,367.514130 
	C353.724487,380.954132 351.438721,394.388916 349.139465,407.984863 
	C341.131866,407.984863 333.385742,407.984863 325.273315,407.984863 
	C330.275024,378.216034 335.218781,348.792084 340.220551,319.022797 
	C347.370239,319.022797 354.630554,317.823639 361.206146,319.429016 
	C365.873230,320.568390 369.504395,318.973663 373.604004,318.834930 
	C376.755768,318.728302 379.959015,318.468109 383.060516,318.875854 
	C391.382812,319.970032 395.118103,324.786621 393.990112,332.932922 
	C393.056335,339.676605 391.911835,346.401062 390.513947,353.061249 
	C390.264648,354.249023 388.321381,355.081268 386.690796,356.068359 
z"/>
<path fill="#FBFAFB" opacity="1.000000" stroke="none" 
	d="
M312.896698,408.276611 
	C307.109161,408.278595 301.808655,408.278595 295.665771,408.278595 
	C300.686462,378.362854 305.632324,348.893097 310.608490,319.242859 
	C318.513397,319.242859 326.099823,319.242859 334.502625,319.242859 
	C329.551025,348.757843 324.627136,378.107544 319.619598,407.955994 
	C317.557373,408.061371 315.470581,408.167999 312.896698,408.276611 
z"/>
<path fill="#FBFAFB" opacity="1.000000" stroke="none" 
	d="
M110.211128,390.273346 
	C109.164413,396.415680 108.198944,402.131073 107.201942,408.033081 
	C99.362801,408.033081 91.768158,408.033081 83.359177,408.033081 
	C88.335014,378.345764 93.264549,348.934692 98.236710,319.269348 
	C106.030548,319.269348 113.804840,319.269348 122.139191,319.269348 
	C118.180504,342.853088 114.236435,366.349731 110.211128,390.273346 
z"/>
<path fill="#F8F8F8" opacity="1.000000" stroke="none" 
	d="
M387.438171,281.451233 
	C388.386383,276.969086 389.426025,272.930817 389.969055,268.826874 
	C390.125153,267.647003 388.848511,266.277557 388.228790,264.995056 
	C387.470795,266.018433 386.270416,266.946014 386.024841,268.080322 
	C384.059418,277.158997 382.274536,286.276764 380.367493,295.713470 
	C375.628052,295.713470 370.920227,295.713470 365.981873,295.713470 
	C370.305695,273.997253 374.581055,252.524628 378.918610,230.739426 
	C385.959137,230.739426 392.760162,230.357330 399.499634,230.837738 
	C407.624146,231.416870 410.243286,235.409958 409.158752,243.611710 
	C408.201996,250.847321 406.573914,257.508209 397.656342,260.166656 
	C403.878143,263.177338 404.730865,267.354950 403.331757,273.097382 
	C401.542938,280.439453 400.777222,288.030762 399.472900,296.120605 
	C397.890625,296.120605 395.253113,296.121613 392.615601,296.120392 
	C385.684723,296.117218 385.309204,295.716888 386.183105,288.761688 
	C386.473267,286.452484 386.949524,284.166626 387.438171,281.451233 
M391.599182,255.875229 
	C395.974731,248.654236 396.223480,240.566788 391.653809,239.072556 
	C390.601990,244.403610 389.522919,249.685715 388.623718,254.998260 
	C388.580078,255.256073 390.115967,255.781219 391.599182,255.875229 
z"/>
<path fill="#F8F7F7" opacity="1.000000" stroke="none" 
	d="
M522.701050,262.727051 
	C520.404846,274.027740 518.202271,284.913422 515.990540,295.844177 
	C511.490356,295.844177 507.374390,295.844177 503.044220,295.844177 
	C506.012939,280.826294 508.930908,266.065155 511.898590,251.052612 
	C509.942261,251.052612 508.310486,251.052612 506.220154,251.052612 
	C503.244720,265.839996 500.243225,280.756897 497.209412,295.834473 
	C492.849030,295.834473 488.754700,295.834473 484.235443,295.834473 
	C487.192169,280.951508 490.096710,266.331146 492.841095,252.517059 
	C491.369720,250.890823 489.275146,249.575836 489.387482,248.489014 
	C489.612457,246.313095 488.813690,242.727615 493.212921,242.940552 
	C493.888062,242.973236 494.950348,241.295639 495.325989,240.230087 
	C498.269470,231.881027 499.329132,231.005310 508.146332,230.644989 
	C511.107056,230.523987 514.076904,230.625854 517.277893,230.625854 
	C517.373291,235.107224 516.974182,238.416565 511.376373,238.257507 
	C510.100311,238.221252 508.760010,240.445236 507.449280,241.628906 
	C507.658386,242.038940 507.867493,242.448990 508.076569,242.859039 
	C513.928589,242.859039 519.780579,242.859039 526.430908,242.859039 
	C525.138428,249.773239 523.966492,256.042664 522.701050,262.727051 
z"/>
<path fill="#F9F9F9" opacity="1.000000" stroke="none" 
	d="
M100.988083,249.917007 
	C102.622269,241.026611 104.225906,232.564224 105.944237,223.496567 
	C127.498619,227.470886 148.678650,231.376190 170.975876,235.487488 
	C168.876846,237.123795 167.467346,238.530701 165.796814,239.476624 
	C150.906570,247.908066 134.797318,250.996796 117.813911,250.494705 
	C110.314079,250.273010 110.388268,250.518478 108.896851,257.821838 
	C107.992882,262.248535 106.859116,266.008789 110.200630,270.620483 
	C113.960236,275.809204 108.568817,282.823029 102.161476,282.096466 
	C100.049202,281.856903 97.962585,281.391022 95.295372,280.930389 
	C97.224831,270.507965 99.091179,260.426514 100.988083,249.917007 
z"/>
<path fill="#F7F7F7" opacity="1.000000" stroke="none" 
	d="
M440.240387,262.323364 
	C439.411865,266.298462 438.682953,269.854889 437.900726,273.671356 
	C433.106537,273.671356 428.630463,273.798981 424.166382,273.622955 
	C421.539398,273.519379 420.187622,274.273346 419.880524,277.063904 
	C419.591980,279.685699 418.621796,282.235352 418.369446,284.856934 
	C418.259613,285.997894 419.194519,287.239441 419.654846,288.435303 
	C420.642517,287.505219 422.182556,286.737427 422.512512,285.614136 
	C423.440247,282.455902 423.869690,279.151245 424.562378,275.557922 
	C428.635834,275.557922 432.706665,275.557922 436.788818,275.557922 
	C437.359253,293.764832 427.731079,299.785614 410.387177,295.651886 
	C406.056915,294.619843 404.242462,291.115906 405.045593,286.784851 
	C407.101227,275.699615 409.304779,264.640411 411.582092,253.598206 
	C412.892456,247.244598 417.345886,244.117477 423.419830,243.122314 
	C439.624359,240.467331 443.662445,244.986923 440.240387,262.323364 
M424.940308,252.493759 
	C424.045807,256.765411 423.151276,261.037048 422.256775,265.308685 
	C422.673096,265.593018 423.089386,265.877350 423.505707,266.161713 
	C424.670471,265.412018 426.543701,264.889099 426.869598,263.870941 
	C427.922089,260.582367 428.638184,257.138733 429.038422,253.702988 
	C429.392303,250.665405 427.734589,250.315735 424.940308,252.493759 
z"/>
<path fill="#F7F7F7" opacity="1.000000" stroke="none" 
	d="
M570.990845,264.115936 
	C569.164673,264.061523 567.338867,263.986328 565.512390,263.958618 
	C563.722534,263.931488 561.932007,263.952698 559.846436,263.952698 
	C560.244934,261.972870 560.568787,260.524780 560.825256,259.064819 
	C563.257690,245.212921 571.806702,239.744247 585.510010,243.286087 
	C590.715942,244.631638 592.993225,248.287003 591.886963,253.879608 
	C589.150635,267.712433 586.332092,281.528992 583.477539,295.694763 
	C582.257446,295.811554 580.984558,295.975433 579.706482,296.048431 
	C574.415588,296.350494 569.126221,296.745575 563.830505,296.881897 
	C555.620117,297.093231 553.969421,294.284668 554.703247,286.255615 
	C555.673645,275.639038 560.917908,269.128387 571.214417,265.395660 
	C577.667297,262.139648 579.589966,258.080048 578.027344,249.607071 
	C576.233032,251.875717 574.756531,253.129303 574.085876,254.722229 
	C572.810791,257.750977 571.996460,260.973755 570.990845,264.115936 
M568.507507,282.913971 
	C568.814697,284.780365 569.121887,286.646759 569.429016,288.513153 
	C570.587708,286.991638 572.286438,285.629456 572.792175,283.915283 
	C573.831055,280.394531 574.231201,276.685303 574.941772,272.793243 
	C568.888733,273.806549 569.609253,278.453979 568.507507,282.913971 
z"/>
<path fill="#F6F5F6" opacity="1.000000" stroke="none" 
	d="
M539.107056,262.224854 
	C537.576660,269.965210 536.014954,277.270172 534.682251,284.616730 
	C534.473755,285.765961 535.307129,287.104248 535.658752,288.355103 
	C536.767944,287.376343 538.525146,286.582336 538.866577,285.384674 
	C539.954529,281.569061 540.515930,277.603241 541.337463,273.405975 
	C545.410034,273.405975 549.487671,273.405975 554.575439,273.405975 
	C553.113342,279.204254 552.510559,285.085297 550.147156,290.143738 
	C546.661560,297.604065 529.096680,299.672028 523.412537,293.544617 
	C521.869812,291.881622 520.962158,288.610840 521.348755,286.349030 
	C523.249573,275.228088 525.682495,264.197998 527.931885,253.136765 
	C528.884766,248.450821 531.892883,244.973389 536.245483,244.143707 
	C541.521301,243.138031 547.141418,243.003174 552.490051,243.596344 
	C557.182129,244.116684 559.228088,248.087875 558.386719,252.902405 
	C557.616150,257.311249 556.649719,261.685883 555.717041,266.337708 
	C551.503113,266.337708 547.415161,266.337708 542.932007,266.337708 
	C543.767090,261.327118 544.568359,256.519196 545.378784,251.656418 
	C541.347961,251.510239 541.347961,251.510239 539.107056,262.224854 
z"/>
<path fill="#F7F7F7" opacity="1.000000" stroke="none" 
	d="
M465.908539,240.235855 
	C465.681030,246.203949 470.597809,240.658661 472.198425,243.490112 
	C471.704224,245.815704 471.210022,248.141296 470.677338,250.647964 
	C468.345367,250.786224 466.224976,250.911926 463.743225,251.059052 
	C461.587830,261.849091 459.249817,272.525940 457.396271,283.286224 
	C456.530396,288.312469 461.485046,286.172150 463.882202,287.545074 
	C463.339264,290.247223 462.796570,292.948029 462.204437,295.894958 
	C457.896912,295.894958 453.758575,296.132965 449.659058,295.835785 
	C444.320007,295.448792 442.836487,293.793060 443.710693,288.392822 
	C445.435486,277.737793 447.603973,267.154572 449.594299,256.542633 
	C449.900482,254.910172 450.234802,253.282990 450.623535,251.311569 
	C448.855682,251.043060 447.145264,250.783264 445.228821,250.492188 
	C445.592285,248.164719 445.944275,245.910477 446.337463,243.392532 
	C448.178131,243.210373 449.951233,243.034882 452.175903,242.814713 
	C452.907471,239.604385 453.668396,236.265091 454.512512,232.560760 
	C458.507751,232.560760 462.570862,232.560760 467.244415,232.560760 
	C466.800690,235.043655 466.377930,237.409241 465.908539,240.235855 
z"/>
<path fill="#F8F7F7" opacity="1.000000" stroke="none" 
	d="
M481.524078,275.569427 
	C480.122620,282.458466 478.871826,288.948547 477.564941,295.729675 
	C473.377747,295.729675 469.304810,295.729675 464.543793,295.729675 
	C468.018463,278.192444 471.473175,260.755829 474.935822,243.279419 
	C479.374329,243.279419 483.483887,243.279419 487.960754,243.279419 
	C485.827057,254.104477 483.750916,264.637482 481.524078,275.569427 
z"/>
<path fill="#F5F4F4" opacity="1.000000" stroke="none" 
	d="
M58.066193,244.506012 
	C59.537712,239.555099 62.275459,236.380844 66.874245,234.623093 
	C68.204742,234.114563 69.481125,232.251984 69.885956,230.765961 
	C71.012207,226.631866 71.667686,222.369522 72.622757,217.588943 
	C74.808861,217.852203 76.820847,218.094513 79.141365,218.373978 
	C75.570076,237.719894 72.087418,256.585693 68.503189,276.001740 
	C66.367790,275.571747 64.371361,275.169739 62.034618,274.699188 
	C62.934307,269.867157 63.935154,265.360626 64.518753,260.800690 
	C64.682816,259.518768 63.978645,257.738953 63.057796,256.774872 
	C59.842041,253.408127 57.351364,249.867599 58.066193,244.506012 
z"/>
<path fill="#F8F7F7" opacity="1.000000" stroke="none" 
	d="
M124.185097,298.239929 
	C124.248482,303.485535 123.888710,308.684174 123.525406,313.933929 
	C114.913521,313.933929 107.191902,313.933929 99.111404,313.933929 
	C100.030266,308.646301 100.897141,303.657806 101.846794,298.192932 
	C109.307274,298.192932 116.534615,298.192932 124.185097,298.239929 
z"/>
<path fill="#F7F7F7" opacity="1.000000" stroke="none" 
	d="
M322.996338,314.158081 
	C319.047211,314.158173 315.594818,314.158173 311.579498,314.158173 
	C312.459717,308.703278 313.264893,303.713440 314.113037,298.457275 
	C322.058014,298.457275 329.773102,298.457275 337.983551,298.457275 
	C337.139648,303.652344 336.329956,308.636810 335.433105,314.157959 
	C331.365387,314.157959 327.429260,314.157959 322.996338,314.158081 
z"/>
<path fill="#F5F4F4" opacity="1.000000" stroke="none" 
	d="
M487.160645,230.544830 
	C488.996613,230.558517 490.431274,230.558517 492.669006,230.558517 
	C488.901886,235.427078 486.657928,240.964615 479.163605,238.493576 
	C481.361572,235.468628 480.777588,230.108353 487.160645,230.544830 
z"/>
<path fill="#313131" opacity="1.000000" stroke="none" 
	d="
M571.002441,264.374023 
	C571.996460,260.973755 572.810791,257.750977 574.085876,254.722229 
	C574.756531,253.129303 576.233032,251.875717 578.027344,249.607071 
	C579.589966,258.080048 577.667297,262.139648 571.427917,265.127563 
	C571.046265,264.975006 571.030151,264.803558 571.002441,264.374023 
z"/>
<path fill="#282727" opacity="1.000000" stroke="none" 
	d="
M142.119415,372.062500 
	C144.069473,360.494263 145.956375,349.355896 147.871597,338.222382 
	C148.065765,337.093597 148.073456,335.494110 148.789001,334.983154 
	C150.370163,333.854095 152.304718,332.959106 154.193436,332.707947 
	C154.656540,332.646362 156.249466,335.540649 156.048904,336.886078 
	C154.064880,350.195465 151.818283,363.465790 149.633087,376.745056 
	C148.850845,381.498688 148.053726,386.250061 147.217270,390.994324 
	C147.017807,392.125702 146.985138,393.718414 146.260239,394.234619 
	C144.786514,395.284119 142.860382,396.305634 141.186310,396.208435 
	C140.357986,396.160339 138.904495,393.514832 139.056686,392.197266 
	C139.818558,385.601624 141.018417,379.056549 142.119415,372.062500 
z"/>
<path fill="#282727" opacity="1.000000" stroke="none" 
	d="
M478.515839,395.572205 
	C472.858673,396.036591 473.679993,392.385193 474.176697,389.315521 
	C476.140350,377.180481 478.251282,365.069305 480.314240,352.950378 
	C481.150574,348.037140 481.987701,343.123901 482.861572,338.217285 
	C483.062683,337.087982 483.057709,335.493103 483.773315,334.972260 
	C485.337433,333.833923 487.258850,332.916870 489.135712,332.664917 
	C489.613586,332.600800 491.198425,335.452454 491.032410,336.812836 
	C490.147644,344.063599 488.912994,351.273590 487.714935,358.483643 
	C485.970764,368.979858 484.280701,379.488464 482.258331,389.931946 
	C481.874268,391.915100 480.052612,393.619873 478.515839,395.572205 
z"/>
<path fill="#282727" opacity="1.000000" stroke="none" 
	d="
M422.891235,334.092590 
	C424.941528,333.468781 427.353943,332.325134 428.414703,333.080292 
	C429.517731,333.865448 429.814972,336.549591 429.592072,338.291718 
	C428.814240,344.371857 427.659088,350.403748 426.597168,356.754028 
	C424.070740,356.754028 421.658600,356.754028 418.340485,356.754028 
	C419.800079,349.201843 421.229767,341.804443 422.891235,334.092590 
z"/>
<path fill="#2A2829" opacity="1.000000" stroke="none" 
	d="
M268.946411,347.732147 
	C269.588409,343.862946 270.271576,340.432648 270.747040,336.973785 
	C271.187836,333.767059 272.938354,332.008148 276.092255,332.445526 
	C279.733276,332.950470 279.070801,335.766968 278.629089,338.292938 
	C277.572174,344.336853 276.524414,350.382355 275.417419,356.746460 
	C272.957855,356.746460 270.555267,356.746460 267.436859,356.746460 
	C267.928223,353.856232 268.412598,351.007416 268.946411,347.732147 
z"/>
<path fill="#2A2829" opacity="1.000000" stroke="none" 
	d="
M540.279785,358.234467 
	C541.569580,350.948822 542.874146,344.104431 543.926636,337.221497 
	C544.447327,333.816528 546.163208,331.930328 549.533203,332.422699 
	C553.219360,332.961212 552.366699,336.005066 551.971313,338.359711 
	C549.060730,355.696289 546.054688,373.016785 543.080688,390.342712 
	C543.024536,390.670013 542.997681,391.002258 542.950928,391.331299 
	C542.494934,394.539764 540.563660,396.117065 537.439941,395.592529 
	C534.197632,395.048126 534.571777,392.455353 534.964294,390.080688 
	C536.695984,379.605347 538.446716,369.133148 540.279785,358.234467 
z"/>
<path fill="#313131" opacity="1.000000" stroke="none" 
	d="
M391.257751,256.028564 
	C390.115967,255.781219 388.580078,255.256073 388.623718,254.998260 
	C389.522919,249.685715 390.601990,244.403610 391.653809,239.072556 
	C396.223480,240.566788 395.974731,248.654236 391.257751,256.028564 
z"/>
<path fill="#313131" opacity="1.000000" stroke="none" 
	d="
M425.174316,252.152832 
	C427.734589,250.315735 429.392303,250.665405 429.038422,253.702988 
	C428.638184,257.138733 427.922089,260.582367 426.869598,263.870941 
	C426.543701,264.889099 424.670471,265.412018 423.505707,266.161713 
	C423.089386,265.877350 422.673096,265.593018 422.256775,265.308685 
	C423.151276,261.037048 424.045807,256.765411 425.174316,252.152832 
z"/>
<path fill="#313131" opacity="1.000000" stroke="none" 
	d="
M568.626953,282.521332 
	C569.609253,278.453979 568.888733,273.806549 574.941772,272.793243 
	C574.231201,276.685303 573.831055,280.394531 572.792175,283.915283 
	C572.286438,285.629456 570.587708,286.991638 569.429077,288.513153 
	C569.121887,286.646759 568.814697,284.780365 568.626953,282.521332 
z"/>
</svg>